{"title":"L'amour l'apres-midi ( Love in the Afternoon).(1972).DVDRip.XviD","uid":8813125,"size":1390458880,"categoryP":"video","categoryS":"movies","magnet":"?xt=urn:btih:219a33df15d954605a0a96befe5f66f403653e5d&amp;dn=L%27amour+l%27apres-midi+%28+Love+in+the+Afternoon%29.%281972%29.DVDRip.XviD&amp;tr=udp%3A%2F%2Ftracker.openbittorrent.com%3A80&amp;tr=udp%3A%2F%2Fopen.demonii.com%3A1337&amp;tr=udp%3A%2F%2Ftracker.coppersurfer.tk%3A6969&amp;tr=udp%3A%2F%2Fexodus.desync.com%3A6969","seeders":3,"leechers":2,"uploader":null,"files":1,"time":1376509847,"description":"L'amour l'apres-midi (Love in the Afternoon).(1972)-DVDRip.XviD\n\nFormat  : AVI\nFormat/Info : Audio Video Interleave\nFile size :1,29 GiB\nDuration : 1h 37mn\nOverall bit rate : 1 896 Kbps\nWriting application : VirtualDubMod 1.5.10.1 (build 2439/release)\nWriting library: VirtualDubMod build 2439/release\n\nVideo\nID : 0\nFormat : MPEG-4 Visual\nFormat profile : Simple@L3\nFormat settings, BVOP : 2\nFormat settings, QPel : No\nFormat settings, GMC: No warppoints\nFormat settings, Matrix: Default (MPEG)\nCodec ID : XVID\nCodec ID/Hint : XviD\nDuration : 1h 37mn\nBit rate  : 1.695 Kbps\nWidth: 640 pixels\nHeight  : 480 pixels\nDisplay aspect ratio : 4:3\nFrame rate : 23.976 fps\nColor space : YUV\nChroma subsampling: 4:2:0\nBit depth : 8 bits\nScan type : Progressive\nCompression mode: Lossy\nBits/(Pixel*Frame): 0.230\nStream size : 1.16 GiB\nWriting library : XviD 1.1.0 Beta2 (UTC 2005-04-04)\n\nAudio\nID  : 1\nFormat : AC-3\nFormat/Info  : Audio Coding 3\nMode extension : CM (complete main)\nFormat settings, Endianness : Big\nCodec ID : 2000\nDuration  : 1h 37mn\nBit rate mode : Constant\nBit rate: 192 Kbps\nChannel(s): 1 channel\nChannel positions: Front: C\nSampling rate : 48.0 KHz\nBit depth: 16 bits\nCompression mode: Lossy\nStream size: 134 MiB (10%)\nAlignment : Split accross interleaves\nInterleave, duration: 42 ms (1.00 video frame)\nInterleave, preload duration : 500 ms\n","torrent":{"xt":"urn:btih:219a33df15d954605a0a96befe5f66f403653e5d","amp;dn":"L%27amour+l%27apres-midi+%28+Love+in+the+Afternoon%29.%281972%29.DVDRip.XviD","amp;tr":["udp%3A%2F%2Ftracker.openbittorrent.com%3A80","udp%3A%2F%2Fopen.demonii.com%3A1337","udp%3A%2F%2Ftracker.coppersurfer.tk%3A6969","udp%3A%2F%2Fexodus.desync.com%3A6969"],"infoHash":"219a33df15d954605a0a96befe5f66f403653e5d","infoHashBuffer":{"type":"Buffer","data":[33,154,51,223,21,217,84,96,90,10,150,190,254,95,102,244,3,101,62,93]},"announce":[],"urlList":[]}}